<mxfile host="app.diagrams.net" modified="2024-02-07T09:21:59.045Z" agent="Mozilla/5.0 (Windows NT 10.0; Win64; x64) AppleWebKit/537.36 (KHTML, like Gecko) Chrome/120.0.0.0 Safari/537.36 OPR/106.0.0.0" etag="pZa1q9VwkkEgRtRx9riJ" version="23.1.1" type="github">
  <diagram name="Page-1" id="Liy0KvOm1NUexir-amGJ">
    <mxGraphModel dx="1859" dy="573" grid="1" gridSize="10" guides="1" tooltips="1" connect="1" arrows="1" fold="1" page="1" pageScale="1" pageWidth="850" pageHeight="1100" math="0" shadow="0">
      <root>
        <mxCell id="0" />
        <mxCell id="1" parent="0" />
        <mxCell id="ef3QcRRkxpOiSRWh8paR-25" value="" style="ellipse;whiteSpace=wrap;html=1;aspect=fixed;" vertex="1" parent="1">
          <mxGeometry x="-200" y="160" width="80" height="80" as="geometry" />
        </mxCell>
        <mxCell id="ef3QcRRkxpOiSRWh8paR-26" value="" style="ellipse;whiteSpace=wrap;html=1;aspect=fixed;" vertex="1" parent="1">
          <mxGeometry x="-400" y="160" width="80" height="80" as="geometry" />
        </mxCell>
        <mxCell id="ef3QcRRkxpOiSRWh8paR-27" value="" style="endArrow=classic;html=1;rounded=0;entryX=0;entryY=0.5;entryDx=0;entryDy=0;exitX=1;exitY=0.5;exitDx=0;exitDy=0;" edge="1" parent="1" source="ef3QcRRkxpOiSRWh8paR-37">
          <mxGeometry width="50" height="50" relative="1" as="geometry">
            <mxPoint x="-480" y="200" as="sourcePoint" />
            <mxPoint x="-400" y="200" as="targetPoint" />
          </mxGeometry>
        </mxCell>
        <mxCell id="ef3QcRRkxpOiSRWh8paR-28" value="" style="endArrow=classic;html=1;rounded=0;entryX=0;entryY=0.5;entryDx=0;entryDy=0;exitX=1;exitY=0.5;exitDx=0;exitDy=0;" edge="1" parent="1" source="ef3QcRRkxpOiSRWh8paR-26" target="ef3QcRRkxpOiSRWh8paR-25">
          <mxGeometry width="50" height="50" relative="1" as="geometry">
            <mxPoint x="-310" y="230" as="sourcePoint" />
            <mxPoint x="-190" y="230" as="targetPoint" />
          </mxGeometry>
        </mxCell>
        <mxCell id="ef3QcRRkxpOiSRWh8paR-29" value="&lt;b style=&quot;font-size: 15px;&quot;&gt;S107&lt;/b&gt;" style="text;html=1;strokeColor=none;fillColor=none;align=center;verticalAlign=middle;whiteSpace=wrap;rounded=0;fontSize=15;" vertex="1" parent="1">
          <mxGeometry x="-390" y="185" width="60" height="30" as="geometry" />
        </mxCell>
        <mxCell id="ef3QcRRkxpOiSRWh8paR-30" value="&lt;b&gt;&lt;font style=&quot;font-size: 15px;&quot;&gt;S108&lt;/font&gt;&lt;/b&gt;" style="text;html=1;strokeColor=none;fillColor=none;align=center;verticalAlign=middle;whiteSpace=wrap;rounded=0;" vertex="1" parent="1">
          <mxGeometry x="-190" y="185" width="60" height="30" as="geometry" />
        </mxCell>
        <mxCell id="ef3QcRRkxpOiSRWh8paR-31" value="E" style="text;html=1;strokeColor=none;fillColor=none;align=center;verticalAlign=middle;whiteSpace=wrap;rounded=0;fontSize=15;" vertex="1" parent="1">
          <mxGeometry x="-314" y="167.5" width="105" height="30" as="geometry" />
        </mxCell>
        <mxCell id="ef3QcRRkxpOiSRWh8paR-32" value="" style="ellipse;whiteSpace=wrap;html=1;aspect=fixed;" vertex="1" parent="1">
          <mxGeometry y="160" width="80" height="80" as="geometry" />
        </mxCell>
        <mxCell id="ef3QcRRkxpOiSRWh8paR-33" value="" style="ellipse;whiteSpace=wrap;html=1;aspect=fixed;" vertex="1" parent="1">
          <mxGeometry x="7.5" y="167.5" width="65" height="65" as="geometry" />
        </mxCell>
        <mxCell id="ef3QcRRkxpOiSRWh8paR-34" value="" style="endArrow=classic;html=1;rounded=0;entryX=0;entryY=0.5;entryDx=0;entryDy=0;exitX=1;exitY=0.5;exitDx=0;exitDy=0;" edge="1" parent="1" target="ef3QcRRkxpOiSRWh8paR-32">
          <mxGeometry width="50" height="50" relative="1" as="geometry">
            <mxPoint x="-120" y="200" as="sourcePoint" />
            <mxPoint x="10" y="230" as="targetPoint" />
          </mxGeometry>
        </mxCell>
        <mxCell id="ef3QcRRkxpOiSRWh8paR-35" value="&lt;b&gt;&lt;font style=&quot;font-size: 15px;&quot;&gt;S109&lt;/font&gt;&lt;/b&gt;" style="text;html=1;strokeColor=none;fillColor=none;align=center;verticalAlign=middle;whiteSpace=wrap;rounded=0;" vertex="1" parent="1">
          <mxGeometry x="10" y="185" width="60" height="30" as="geometry" />
        </mxCell>
        <mxCell id="ef3QcRRkxpOiSRWh8paR-36" value="T" style="text;html=1;strokeColor=none;fillColor=none;align=center;verticalAlign=middle;whiteSpace=wrap;rounded=0;fontSize=15;" vertex="1" parent="1">
          <mxGeometry x="-110" y="167.5" width="105" height="30" as="geometry" />
        </mxCell>
        <mxCell id="ef3QcRRkxpOiSRWh8paR-37" value="" style="ellipse;whiteSpace=wrap;html=1;aspect=fixed;" vertex="1" parent="1">
          <mxGeometry x="-600" y="160" width="80" height="80" as="geometry" />
        </mxCell>
        <mxCell id="ef3QcRRkxpOiSRWh8paR-38" value="" style="endArrow=classic;html=1;rounded=0;entryX=0;entryY=0.5;entryDx=0;entryDy=0;" edge="1" parent="1">
          <mxGeometry width="50" height="50" relative="1" as="geometry">
            <mxPoint x="-680" y="200" as="sourcePoint" />
            <mxPoint x="-600" y="200" as="targetPoint" />
          </mxGeometry>
        </mxCell>
        <mxCell id="ef3QcRRkxpOiSRWh8paR-39" value="&lt;b style=&quot;font-size: 15px;&quot;&gt;S0&lt;/b&gt;" style="text;html=1;strokeColor=none;fillColor=none;align=center;verticalAlign=middle;whiteSpace=wrap;rounded=0;fontSize=15;" vertex="1" parent="1">
          <mxGeometry x="-590" y="185" width="60" height="30" as="geometry" />
        </mxCell>
        <mxCell id="ef3QcRRkxpOiSRWh8paR-40" value="S" style="text;html=1;strokeColor=none;fillColor=none;align=center;verticalAlign=middle;whiteSpace=wrap;rounded=0;fontSize=15;" vertex="1" parent="1">
          <mxGeometry x="-520" y="167.5" width="105" height="30" as="geometry" />
        </mxCell>
        <mxCell id="ef3QcRRkxpOiSRWh8paR-42" value="" style="ellipse;whiteSpace=wrap;html=1;aspect=fixed;" vertex="1" parent="1">
          <mxGeometry x="-400" y="280" width="80" height="80" as="geometry" />
        </mxCell>
        <mxCell id="ef3QcRRkxpOiSRWh8paR-43" value="" style="ellipse;whiteSpace=wrap;html=1;aspect=fixed;" vertex="1" parent="1">
          <mxGeometry x="-600" y="280" width="80" height="80" as="geometry" />
        </mxCell>
        <mxCell id="ef3QcRRkxpOiSRWh8paR-44" value="" style="endArrow=classic;html=1;rounded=0;entryX=0;entryY=0.5;entryDx=0;entryDy=0;" edge="1" parent="1">
          <mxGeometry width="50" height="50" relative="1" as="geometry">
            <mxPoint x="-680" y="320" as="sourcePoint" />
            <mxPoint x="-600" y="320" as="targetPoint" />
          </mxGeometry>
        </mxCell>
        <mxCell id="ef3QcRRkxpOiSRWh8paR-45" value="" style="endArrow=classic;html=1;rounded=0;entryX=0;entryY=0.5;entryDx=0;entryDy=0;exitX=1;exitY=0.5;exitDx=0;exitDy=0;" edge="1" parent="1" source="ef3QcRRkxpOiSRWh8paR-43" target="ef3QcRRkxpOiSRWh8paR-42">
          <mxGeometry width="50" height="50" relative="1" as="geometry">
            <mxPoint x="-510" y="350" as="sourcePoint" />
            <mxPoint x="-390" y="350" as="targetPoint" />
          </mxGeometry>
        </mxCell>
        <mxCell id="ef3QcRRkxpOiSRWh8paR-46" value="&lt;b style=&quot;font-size: 15px;&quot;&gt;S0&lt;/b&gt;" style="text;html=1;strokeColor=none;fillColor=none;align=center;verticalAlign=middle;whiteSpace=wrap;rounded=0;fontSize=15;" vertex="1" parent="1">
          <mxGeometry x="-590" y="305" width="60" height="30" as="geometry" />
        </mxCell>
        <mxCell id="ef3QcRRkxpOiSRWh8paR-47" value="&lt;b&gt;&lt;font style=&quot;font-size: 15px;&quot;&gt;S111&lt;/font&gt;&lt;/b&gt;" style="text;html=1;strokeColor=none;fillColor=none;align=center;verticalAlign=middle;whiteSpace=wrap;rounded=0;" vertex="1" parent="1">
          <mxGeometry x="-390" y="305" width="60" height="30" as="geometry" />
        </mxCell>
        <mxCell id="ef3QcRRkxpOiSRWh8paR-48" value="A" style="text;html=1;strokeColor=none;fillColor=none;align=center;verticalAlign=middle;whiteSpace=wrap;rounded=0;fontSize=15;" vertex="1" parent="1">
          <mxGeometry x="-514" y="287.5" width="105" height="30" as="geometry" />
        </mxCell>
        <mxCell id="ef3QcRRkxpOiSRWh8paR-49" value="" style="ellipse;whiteSpace=wrap;html=1;aspect=fixed;" vertex="1" parent="1">
          <mxGeometry x="-200" y="280" width="80" height="80" as="geometry" />
        </mxCell>
        <mxCell id="ef3QcRRkxpOiSRWh8paR-50" value="" style="ellipse;whiteSpace=wrap;html=1;aspect=fixed;" vertex="1" parent="1">
          <mxGeometry x="-192.5" y="287.5" width="65" height="65" as="geometry" />
        </mxCell>
        <mxCell id="ef3QcRRkxpOiSRWh8paR-51" value="" style="endArrow=classic;html=1;rounded=0;entryX=0;entryY=0.5;entryDx=0;entryDy=0;exitX=1;exitY=0.5;exitDx=0;exitDy=0;" edge="1" parent="1" target="ef3QcRRkxpOiSRWh8paR-49">
          <mxGeometry width="50" height="50" relative="1" as="geometry">
            <mxPoint x="-320" y="320" as="sourcePoint" />
            <mxPoint x="-190" y="350" as="targetPoint" />
          </mxGeometry>
        </mxCell>
        <mxCell id="ef3QcRRkxpOiSRWh8paR-52" value="&lt;b&gt;&lt;font style=&quot;font-size: 15px;&quot;&gt;S112&lt;/font&gt;&lt;/b&gt;" style="text;html=1;strokeColor=none;fillColor=none;align=center;verticalAlign=middle;whiteSpace=wrap;rounded=0;" vertex="1" parent="1">
          <mxGeometry x="-190" y="305" width="60" height="30" as="geometry" />
        </mxCell>
        <mxCell id="ef3QcRRkxpOiSRWh8paR-53" value="S" style="text;html=1;strokeColor=none;fillColor=none;align=center;verticalAlign=middle;whiteSpace=wrap;rounded=0;fontSize=15;" vertex="1" parent="1">
          <mxGeometry x="-310" y="287.5" width="105" height="30" as="geometry" />
        </mxCell>
      </root>
    </mxGraphModel>
  </diagram>
</mxfile>
